<mxfile host="app.diagrams.net" modified="2022-02-22T03:52:21.536Z" agent="5.0 (Windows)" etag="yX3CtEmydEiuHOWE-Ocq" version="16.6.2" type="github">
  <diagram id="prtHgNgQTEPvFCAcTncT" name="Page-1">
    <mxGraphModel dx="1422" dy="752" grid="1" gridSize="10" guides="1" tooltips="1" connect="1" arrows="1" fold="1" page="1" pageScale="1" pageWidth="827" pageHeight="1169" math="0" shadow="0">
      <root>
        <mxCell id="0" />
        <mxCell id="1" parent="0" />
        <mxCell id="x2l22brX-m7gqPpkUbHw-5" value="Coffee" style="swimlane;childLayout=stackLayout;resizeParent=1;resizeParentMax=0;startSize=20;" vertex="1" parent="1">
          <mxGeometry x="40" y="20" width="720" height="450" as="geometry" />
        </mxCell>
        <mxCell id="x2l22brX-m7gqPpkUbHw-6" value="Farmer    " style="swimlane;startSize=20;" vertex="1" parent="x2l22brX-m7gqPpkUbHw-5">
          <mxGeometry y="20" width="180" height="430" as="geometry" />
        </mxCell>
        <mxCell id="x2l22brX-m7gqPpkUbHw-12" value="" style="edgeStyle=orthogonalEdgeStyle;rounded=0;orthogonalLoop=1;jettySize=auto;html=1;" edge="1" parent="x2l22brX-m7gqPpkUbHw-6" source="x2l22brX-m7gqPpkUbHw-10" target="x2l22brX-m7gqPpkUbHw-11">
          <mxGeometry relative="1" as="geometry" />
        </mxCell>
        <mxCell id="x2l22brX-m7gqPpkUbHw-10" value="" style="shape=waypoint;sketch=0;fillStyle=solid;size=6;pointerEvents=1;points=[];fillColor=none;resizable=0;rotatable=0;perimeter=centerPerimeter;snapToPoint=1;" vertex="1" parent="x2l22brX-m7gqPpkUbHw-6">
          <mxGeometry x="70" y="20" width="40" height="40" as="geometry" />
        </mxCell>
        <mxCell id="x2l22brX-m7gqPpkUbHw-14" value="" style="edgeStyle=orthogonalEdgeStyle;rounded=0;orthogonalLoop=1;jettySize=auto;html=1;" edge="1" parent="x2l22brX-m7gqPpkUbHw-6" source="x2l22brX-m7gqPpkUbHw-11" target="x2l22brX-m7gqPpkUbHw-13">
          <mxGeometry relative="1" as="geometry" />
        </mxCell>
        <mxCell id="x2l22brX-m7gqPpkUbHw-11" value="Harvest Item" style="whiteSpace=wrap;html=1;fillColor=none;sketch=0;fillStyle=solid;" vertex="1" parent="x2l22brX-m7gqPpkUbHw-6">
          <mxGeometry x="20" y="80" width="140" height="40" as="geometry" />
        </mxCell>
        <mxCell id="x2l22brX-m7gqPpkUbHw-16" value="" style="edgeStyle=orthogonalEdgeStyle;rounded=0;orthogonalLoop=1;jettySize=auto;html=1;" edge="1" parent="x2l22brX-m7gqPpkUbHw-6" source="x2l22brX-m7gqPpkUbHw-13" target="x2l22brX-m7gqPpkUbHw-15">
          <mxGeometry relative="1" as="geometry" />
        </mxCell>
        <mxCell id="x2l22brX-m7gqPpkUbHw-13" value="&lt;div&gt;Process Item&lt;/div&gt;" style="whiteSpace=wrap;html=1;fillColor=none;sketch=0;fillStyle=solid;" vertex="1" parent="x2l22brX-m7gqPpkUbHw-6">
          <mxGeometry x="20" y="150" width="140" height="40" as="geometry" />
        </mxCell>
        <mxCell id="x2l22brX-m7gqPpkUbHw-18" value="" style="edgeStyle=orthogonalEdgeStyle;rounded=0;orthogonalLoop=1;jettySize=auto;html=1;" edge="1" parent="x2l22brX-m7gqPpkUbHw-6" source="x2l22brX-m7gqPpkUbHw-15" target="x2l22brX-m7gqPpkUbHw-17">
          <mxGeometry relative="1" as="geometry" />
        </mxCell>
        <mxCell id="x2l22brX-m7gqPpkUbHw-15" value="Pack Item" style="whiteSpace=wrap;html=1;fillColor=none;sketch=0;fillStyle=solid;" vertex="1" parent="x2l22brX-m7gqPpkUbHw-6">
          <mxGeometry x="20" y="220" width="140" height="40" as="geometry" />
        </mxCell>
        <mxCell id="x2l22brX-m7gqPpkUbHw-17" value="Add Item" style="whiteSpace=wrap;html=1;fillColor=none;sketch=0;fillStyle=solid;" vertex="1" parent="x2l22brX-m7gqPpkUbHw-6">
          <mxGeometry x="20" y="290" width="140" height="40" as="geometry" />
        </mxCell>
        <mxCell id="x2l22brX-m7gqPpkUbHw-7" value="Distributor" style="swimlane;startSize=20;" vertex="1" parent="x2l22brX-m7gqPpkUbHw-5">
          <mxGeometry x="180" y="20" width="180" height="430" as="geometry" />
        </mxCell>
        <mxCell id="x2l22brX-m7gqPpkUbHw-22" value="" style="edgeStyle=orthogonalEdgeStyle;rounded=0;orthogonalLoop=1;jettySize=auto;html=1;" edge="1" parent="x2l22brX-m7gqPpkUbHw-7" source="x2l22brX-m7gqPpkUbHw-19" target="x2l22brX-m7gqPpkUbHw-21">
          <mxGeometry relative="1" as="geometry" />
        </mxCell>
        <mxCell id="x2l22brX-m7gqPpkUbHw-19" value="Buy Item" style="whiteSpace=wrap;html=1;fillColor=none;sketch=0;fillStyle=solid;" vertex="1" parent="x2l22brX-m7gqPpkUbHw-7">
          <mxGeometry x="20" y="290" width="140" height="40" as="geometry" />
        </mxCell>
        <mxCell id="x2l22brX-m7gqPpkUbHw-21" value="Ship Item" style="whiteSpace=wrap;html=1;fillColor=none;sketch=0;fillStyle=solid;" vertex="1" parent="x2l22brX-m7gqPpkUbHw-7">
          <mxGeometry x="20" y="360" width="140" height="40" as="geometry" />
        </mxCell>
        <mxCell id="x2l22brX-m7gqPpkUbHw-8" value="Retailer" style="swimlane;startSize=20;" vertex="1" parent="x2l22brX-m7gqPpkUbHw-5">
          <mxGeometry x="360" y="20" width="180" height="430" as="geometry" />
        </mxCell>
        <mxCell id="x2l22brX-m7gqPpkUbHw-23" value="Receive Item" style="whiteSpace=wrap;html=1;fillColor=none;sketch=0;fillStyle=solid;" vertex="1" parent="x2l22brX-m7gqPpkUbHw-8">
          <mxGeometry x="20" y="360" width="140" height="40" as="geometry" />
        </mxCell>
        <mxCell id="x2l22brX-m7gqPpkUbHw-9" value="Consumer" style="swimlane;startSize=20;" vertex="1" parent="x2l22brX-m7gqPpkUbHw-5">
          <mxGeometry x="540" y="20" width="180" height="430" as="geometry" />
        </mxCell>
        <mxCell id="x2l22brX-m7gqPpkUbHw-29" value="" style="edgeStyle=orthogonalEdgeStyle;rounded=0;orthogonalLoop=1;jettySize=auto;html=1;" edge="1" parent="x2l22brX-m7gqPpkUbHw-9" source="x2l22brX-m7gqPpkUbHw-25" target="x2l22brX-m7gqPpkUbHw-28">
          <mxGeometry relative="1" as="geometry" />
        </mxCell>
        <mxCell id="x2l22brX-m7gqPpkUbHw-25" value="Purchase Item" style="whiteSpace=wrap;html=1;fillColor=none;sketch=0;fillStyle=solid;" vertex="1" parent="x2l22brX-m7gqPpkUbHw-9">
          <mxGeometry x="20" y="360" width="140" height="40" as="geometry" />
        </mxCell>
        <mxCell id="x2l22brX-m7gqPpkUbHw-28" value="" style="shape=waypoint;sketch=0;size=6;pointerEvents=1;points=[];fillColor=none;resizable=0;rotatable=0;perimeter=centerPerimeter;snapToPoint=1;fillStyle=solid;" vertex="1" parent="x2l22brX-m7gqPpkUbHw-9">
          <mxGeometry x="70" y="20" width="40" height="40" as="geometry" />
        </mxCell>
        <mxCell id="x2l22brX-m7gqPpkUbHw-20" value="" style="edgeStyle=orthogonalEdgeStyle;rounded=0;orthogonalLoop=1;jettySize=auto;html=1;" edge="1" parent="x2l22brX-m7gqPpkUbHw-5" source="x2l22brX-m7gqPpkUbHw-17" target="x2l22brX-m7gqPpkUbHw-19">
          <mxGeometry relative="1" as="geometry" />
        </mxCell>
        <mxCell id="x2l22brX-m7gqPpkUbHw-24" value="" style="edgeStyle=orthogonalEdgeStyle;rounded=0;orthogonalLoop=1;jettySize=auto;html=1;" edge="1" parent="x2l22brX-m7gqPpkUbHw-5" source="x2l22brX-m7gqPpkUbHw-21" target="x2l22brX-m7gqPpkUbHw-23">
          <mxGeometry relative="1" as="geometry" />
        </mxCell>
        <mxCell id="x2l22brX-m7gqPpkUbHw-26" value="" style="edgeStyle=orthogonalEdgeStyle;rounded=0;orthogonalLoop=1;jettySize=auto;html=1;" edge="1" parent="x2l22brX-m7gqPpkUbHw-5" source="x2l22brX-m7gqPpkUbHw-23" target="x2l22brX-m7gqPpkUbHw-25">
          <mxGeometry relative="1" as="geometry" />
        </mxCell>
      </root>
    </mxGraphModel>
  </diagram>
</mxfile>
